<svg width="64" height="64" viewBox="0 0 64 64" fill="none" xmlns="http://www.w3.org/2000/svg">
<g clip-path="url(#clip0_7075_1843)">
<path d="M32.9013 61.6827C32.7253 61.5173 25.7787 54.8667 21.656 45.3333H27.2907L26.3787 42.6667H20.6133C19.4453 39.344 18.6667 35.752 18.6667 32C18.6667 28.248 19.4453 24.6587 20.6187 21.3333H43.3547C44.008 23.192 44.5493 25.1253 44.888 27.136L47.736 28.1093C47.448 25.752 46.8933 23.4933 46.1973 21.3333H59.2987C60.5973 24.6453 61.336 28.2347 61.336 32C61.336 32.2533 61.3067 32.4987 61.2987 32.7493L63.9173 33.6453C63.9467 33.096 64 32.5547 64 32C64 14.3547 49.6453 0 32 0C14.3547 0 0 14.3547 0 32C0 49.6453 14.3547 64 32 64C32.5573 64 33.0987 63.944 33.648 63.9173L32.912 61.6827H32.8987H32.9013ZM21.6613 18.6667C24.9387 11.0987 29.968 5.36267 32 3.232C34.0293 5.36533 39.0427 11.1067 42.3093 18.6667H21.6613ZM58.096 18.6667H45.2373C42.4 11.56 38.0187 5.92 35.304 2.86667C45.2613 3.98933 53.7093 10.1173 58.096 18.6667ZM28.6933 2.86667C25.976 5.91733 21.5893 11.552 18.744 18.6667H5.904C10.2907 10.1173 18.736 3.98933 28.6933 2.86667ZM4.704 21.3333H17.784C16.7067 24.6613 16 28.2373 16 32C16 35.7627 16.7067 39.3387 17.784 42.6667H4.704C3.40533 39.3547 2.66667 35.7653 2.66667 32C2.66667 28.2347 3.40533 24.6453 4.704 21.3333ZM5.904 45.3333H18.7413C21.5867 52.4507 25.9733 58.0827 28.6933 61.1333C18.736 60.0107 10.2907 53.8827 5.904 45.3333ZM39.2933 63.944L46.0347 46.0347L63.944 39.2933L26.4747 26.4747L39.2933 63.944ZM43.9653 43.968L39.4133 56.0587L30.7573 30.76L56.056 39.4133L43.9653 43.968Z" fill="url(#paint0_linear_7075_1843)"/>
</g>
<defs>
<linearGradient id="paint0_linear_7075_1843" x1="6.97514" y1="11.8273" x2="48.9822" y2="58.3322" gradientUnits="userSpaceOnUse">
<stop stop-color="#50C878"/>
<stop offset="1" stop-color="#C0C850"/>
</linearGradient>
<clipPath id="clip0_7075_1843">
<rect width="64" height="64" fill="white"/>
</clipPath>
</defs>
</svg>
