<svg width="96" height="96" viewBox="0 0 96 96" fill="none" xmlns="http://www.w3.org/2000/svg">
<g clip-path="url(#clip0_7071_1482)">
<path d="M95.9837 41.4783C95.9837 48.0564 88.4492 90.8125 56.673 95.417C24.8968 100.022 0 76.67 0 49.3715C0 22.073 19.3278 16.8105 58.6385 2.66792C97.9493 -11.4746 95.9837 34.9002 95.9837 41.4783Z" fill="url(#paint0_linear_7071_1482)"/>
<g clip-path="url(#clip1_7071_1482)">
<path d="M61.3333 30.9067V24L69.3333 16V26.6667H80L72 34.6667H65.0933L53.12 46.64C53.2267 47.0667 53.3067 47.52 53.3067 48C53.3067 50.9333 50.9067 53.3333 47.9733 53.3333C45.04 53.3333 42.64 50.9333 42.64 48C42.64 45.0667 45.04 42.6667 47.9733 42.6667C48.4533 42.6667 48.9067 42.7467 49.3333 42.8533L61.3067 30.88L61.3333 30.9067ZM74.2133 40H70.64C71.4933 42.48 72 45.12 72 47.8933C70.8 79.7867 25.2 79.7867 24 47.8933C24 34.6133 34.7733 23.8133 48 23.8133C50.8 23.8133 53.4933 24.32 56 25.2267V21.7867L59.7067 18.08C41.3333 11.28 17.0133 21.2 16 47.8933C16 65.6 30.3467 80 48 80C65.6533 80 80 65.6 80 47.8933C79.84 43.6267 79.0667 39.7867 77.8133 36.3733L74.2133 39.9733V40ZM47.44 37.2533L54.4 30.2933C52.5067 29.6267 50.3733 29.2267 48 29.1733C23.3333 29.9467 23.3333 65.84 48 66.64C63.12 66.16 68.96 52.48 65.5467 41.7867L58.48 48.8533C58.08 53.7867 54.6133 58.4267 48 58.6133C33.68 58.2933 32.4267 38.2933 47.4133 37.28L47.44 37.2533Z" fill="white"/>
</g>
</g>
<defs>
<linearGradient id="paint0_linear_7071_1482" x1="10.4627" y1="17.7409" x2="73.4732" y2="87.4983" gradientUnits="userSpaceOnUse">
<stop stop-color="#50C878"/>
<stop offset="1" stop-color="#C0C850"/>
</linearGradient>
<clipPath id="clip0_7071_1482">
<rect width="96" height="96" fill="white"/>
</clipPath>
<clipPath id="clip1_7071_1482">
<rect width="64" height="64" fill="white" transform="translate(16 16)"/>
</clipPath>
</defs>
</svg>
