<svg width="96" height="96" viewBox="0 0 96 96" fill="none" xmlns="http://www.w3.org/2000/svg">
<g clip-path="url(#clip0_7071_954)">
<path d="M0.0162506 54.5217C0.0162506 47.9436 7.5508 5.18755 39.327 0.582977C71.1032 -4.02159 96 19.33 96 46.6285C96 73.927 76.6722 79.1895 37.3615 93.3321C-1.94929 107.475 0.0162506 61.0998 0.0162506 54.5217Z" fill="url(#paint0_linear_7071_954)"/>
<g clip-path="url(#clip1_7071_954)">
<path d="M64 32C55.176 32 48 39.176 48 48C48 56.824 55.176 64 64 64C72.824 64 80 56.824 80 48C80 39.176 72.824 32 64 32ZM66.8773 54.5093L61.3333 49.1253V39.9973H66.6667V46.8693L70.592 50.6827L66.8773 54.5093ZM49.664 66.6667H30.3547C32.312 61.6 36.696 57.6747 40.04 55.2693C43.368 57.6587 47.7307 61.5707 49.664 66.6667ZM63.816 69.3253C63.9013 70.2053 64 71.08 64 72V80H16V72C16 61.3173 21.9733 53.2987 27.8453 48C21.9733 42.7013 16 34.6827 16 24C16 19.5893 19.5893 16 24 16H56C60.4107 16 64 19.5893 64 24C64 24.92 63.9013 25.7947 63.816 26.6747C52.1387 26.776 42.6667 36.296 42.6667 48C42.6667 48.928 42.7467 49.8373 42.8613 50.736C42.384 50.4 41.9227 50.08 41.4933 49.8027L40.032 48.848L38.5733 49.8053C33.872 52.888 25.7573 59.472 24.2453 68.912L23.7493 72H56.2427L55.7573 68.92C55.6827 68.4533 55.5813 68 55.4773 67.5467C58.0347 68.6667 60.8507 69.2987 63.8107 69.3227L63.816 69.3253Z" fill="white"/>
</g>
</g>
<defs>
<linearGradient id="paint0_linear_7071_954" x1="85.5373" y1="78.2591" x2="22.5268" y2="8.50173" gradientUnits="userSpaceOnUse">
<stop stop-color="#50C878"/>
<stop offset="1" stop-color="#C0C850"/>
</linearGradient>
<clipPath id="clip0_7071_954">
<rect width="96" height="96" fill="white"/>
</clipPath>
<clipPath id="clip1_7071_954">
<rect width="64" height="64" fill="white" transform="translate(16 16)"/>
</clipPath>
</defs>
</svg>
