<svg width="64" height="64" viewBox="0 0 64 64" fill="none" xmlns="http://www.w3.org/2000/svg">
<path d="M20.5514 22.1146C21.5941 23.1573 21.5941 24.8453 20.5514 25.8853C19.5088 26.928 17.8208 26.928 16.7808 25.8853C15.7381 24.8426 15.7381 23.1546 16.7808 22.1146C17.8234 21.072 19.5114 21.072 20.5514 22.1146ZM59.5061 35.976L58.3674 37.152C58.9968 39.3253 58.4581 41.7653 56.7488 43.4746L38.7061 62.1066C37.4794 63.3333 35.8714 64 34.1594 64C32.4474 64 30.8394 63.3333 29.6288 62.1226L2.74609 35.24L5.44209 10.8533L29.8501 7.51464L56.7488 34.4106C56.8448 34.5066 56.9354 34.6053 57.0234 34.704L57.6074 34.1013C58.3274 33.384 58.7141 32.4426 58.7141 31.44C58.7141 30.4373 58.3248 29.496 57.6234 28.7946L31.6608 2.83464L9.59143 5.85331L9.23143 3.21064L32.6101 0.0133057L59.5088 26.9093C62.0101 29.408 62.0101 33.4746 59.5088 35.9733L59.5061 35.976ZM54.8634 36.2986L28.9034 10.336L7.86343 13.2133L5.53809 34.2613L31.5141 60.2373C32.9248 61.6506 35.3941 61.6506 36.8048 60.2373L54.8474 41.6053C56.3221 40.1306 56.3221 37.7573 54.8634 36.2986Z" fill="url(#paint0_linear_7075_1855)"/>
<defs>
<linearGradient id="paint0_linear_7075_1855" x1="9.13692" y1="11.8381" x2="51.3483" y2="54.6634" gradientUnits="userSpaceOnUse">
<stop stop-color="#50C878"/>
<stop offset="1" stop-color="#C0C850"/>
</linearGradient>
</defs>
</svg>
