<svg width="96" height="96" viewBox="0 0 96 96" fill="none" xmlns="http://www.w3.org/2000/svg">
<g clip-path="url(#clip0_7071_1506)">
<path d="M95.9837 54.5217C95.9837 47.9436 88.4492 5.18755 56.673 0.582977C24.8968 -4.02159 0 19.33 0 46.6285C0 73.927 19.3278 79.1895 58.6385 93.3321C97.9493 107.475 95.9837 61.0998 95.9837 54.5217Z" fill="url(#paint0_linear_7071_1506)"/>
<g clip-path="url(#clip1_7071_1506)">
<path d="M48 80C30.3547 80 16 65.6453 16 48C16 30.3547 30.3547 16 48 16C65.6453 16 80 30.3547 80 48C80 65.6453 65.6453 80 48 80ZM61.3333 45.3333H50.6667V29.3333H45.3333V50.6667H61.3333V45.3333Z" fill="white"/>
</g>
</g>
<defs>
<linearGradient id="paint0_linear_7071_1506" x1="10.4627" y1="78.2591" x2="73.4732" y2="8.50173" gradientUnits="userSpaceOnUse">
<stop stop-color="#50C878"/>
<stop offset="1" stop-color="#C0C850"/>
</linearGradient>
<clipPath id="clip0_7071_1506">
<rect width="96" height="96" fill="white"/>
</clipPath>
<clipPath id="clip1_7071_1506">
<rect width="64" height="64" fill="white" transform="translate(16 16)"/>
</clipPath>
</defs>
</svg>
