<svg width="1504" height="211" viewBox="0 0 1504 211" fill="none" xmlns="http://www.w3.org/2000/svg">
<path d="M13.4278 194.996C13.4278 166.06 13.4278 124.412 13.4278 95.4762C13.4278 95.4762 18.6794 95.4762 27.1476 95.4762C47.1693 95.4156 67.1911 95.4762 87.2128 95.4762C96.797 95.4762 101.786 90.9361 101.786 82.0979C101.786 63.8163 102.049 31.6727 101.72 13.3911L116.95 13.3906C137.694 13.8144 158.503 13.5117 179.313 13.5117C187.584 13.5117 192.836 13.511 192.836 13.511C192.901 32.0953 192.836 63.0899 192.836 81.6742C192.836 90.9361 197.694 95.4156 207.672 95.4156C229.006 95.4156 250.341 95.4156 271.676 95.4156C278.043 95.4156 286.506 95.4156 286.506 95.4156C286.309 96.7474 280.275 106.736 279.553 107.946C257.956 144.631 236.293 181.315 214.696 217.999C211.085 224.174 209.621 227.201 209.621 227.201C185.792 227.201 134.599 227.313 110.77 227.313C110.77 227.313 114.127 221.571 118.263 214.549C138.35 180.407 158.241 146.205 178.722 112.305C184.368 102.922 179.641 97.1712 169.072 97.5344C152.595 98.1397 136.053 97.716 119.51 97.716C109.138 97.716 104.215 102.317 104.215 111.821C104.215 168.239 104.215 224.598 104.281 281.016C104.281 286.041 104.281 294.523 104.281 294.523C104.281 294.523 93.7117 294.455 91.5454 294.455C69.7512 294.576 35.2219 294.516 13.4277 294.516C13.4277 294.516 13.4278 289.673 13.4278 282.711C13.4278 253.473 13.4278 224.234 13.4278 194.996Z" fill="white"/>
<path d="M661.94 294.609H602.862V95.7207H661.94V294.609Z" fill="white"/>
<path d="M1005.42 151.123L1042.49 95.7207H1107.78L1040.49 195.162L1107.78 294.609H1042.49L1005.42 239.206L968.358 294.609H902.782L970.069 195.162L902.782 95.7207H968.358L1005.42 151.123Z" fill="white"/>
<path fill-rule="evenodd" clip-rule="evenodd" d="M507.839 95.7207C606.469 96.0071 608.179 241.088 507.839 239.671H404.017V294.465H344.723V95.7207H507.839ZM404.017 189.702H507.839C528.076 189.698 528.36 145.693 507.269 145.69H404.017V189.702Z" fill="white"/>
<path d="M882.37 154.517H850.956C829.3 154.517 811.739 171.997 811.739 193.56V224.547H780.607C758.952 224.548 741.403 242.034 741.403 263.596V294.465H682.358V235.676H713.477C735.132 235.675 752.693 218.188 752.694 196.626V165.764H784.108C805.764 165.764 823.325 148.277 823.325 126.714V95.7207H882.37V154.517Z" fill="white"/>
<path d="M882.383 294.465H823.332V237.938C823.333 237.335 823.579 236.756 824.007 236.329C824.436 235.904 825.015 235.663 825.62 235.662H882.383V294.465Z" fill="white"/>
<path d="M1284.93 145.69H1187.47V170.112H1252.4V220.081H1187.92V244.496H1288.36V294.465H1128.57V95.7207H1284.93V145.69Z" fill="white"/>
<path d="M1431.23 195.096V95.7207H1490.57V294.465H1431.23L1365.04 195.096V294.465H1305.7V95.7207H1365.04L1431.23 195.096Z" fill="white"/>
<path d="M741.397 152.241C741.395 152.843 741.155 153.424 740.728 153.85C740.3 154.275 739.719 154.515 739.115 154.517H682.352V95.7207H741.397V152.241Z" fill="white"/>
</svg>
