<svg width="64" height="64" viewBox="0 0 64 64" fill="none" xmlns="http://www.w3.org/2000/svg">
<path d="M56 56V64H53.3333V56C53.3333 51.5893 49.744 48 45.3333 48H18.6667C14.256 48 10.6667 51.5893 10.6667 56V64H8V56C8 50.1173 12.784 45.3333 18.6667 45.3333H45.3333C51.216 45.3333 56 50.1173 56 56ZM10.6667 24H8C8 17.168 10.928 10.6373 16.0293 6.08265C21.128 1.53865 27.976 -0.610686 34.8267 0.162647C45.4853 1.38398 54.2907 9.96531 55.7627 20.568C56.3387 24.7173 55.8533 28.9253 54.3627 32.7413C52.6613 37.0826 48.2267 40 43.3307 40H32.0027C29.0613 40 26.6693 37.608 26.6693 34.6666C26.6693 31.7253 29.0613 29.3333 32.0027 29.3333C34.944 29.3333 37.336 31.7253 37.336 34.6666C37.336 35.6373 37.0747 36.5493 36.6187 37.3333H43.3307C47.1413 37.3333 50.576 35.096 51.8773 31.768C53.2053 28.3786 53.6347 24.6293 53.1227 20.9333C51.816 11.5173 43.992 3.89598 34.5253 2.81331C28.3413 2.10398 22.4053 3.97598 17.8053 8.07731C13.2693 12.1253 10.6667 17.928 10.6667 24.0026V24ZM32 37.3333C33.4693 37.3333 34.6667 36.1386 34.6667 34.6666C34.6667 33.1946 33.4693 32 32 32C30.5307 32 29.3333 33.1946 29.3333 34.6666C29.3333 36.1386 30.5307 37.3333 32 37.3333ZM32 10.6666C39.352 10.6666 45.3333 16.648 45.3333 24C45.3333 27.0213 44.264 29.7626 42.56 32H45.832C47.2053 29.6453 48.0027 26.9173 48.0027 24C48.0027 15.176 40.8267 7.99998 32.0027 7.99998C23.1787 7.99998 16.0027 15.176 16.0027 24C16.0027 28.7893 18.128 33.08 21.472 36.016C21.416 35.5706 21.336 35.128 21.336 34.6666C21.336 33.84 21.4507 33.0453 21.6293 32.272C19.8053 29.992 18.6693 27.1386 18.6693 24C18.6693 16.648 24.6507 10.6666 32.0027 10.6666H32Z" fill="url(#paint0_linear_7075_1861)"/>
<defs>
<linearGradient id="paint0_linear_7075_1861" x1="13.2314" y1="11.8338" x2="54.732" y2="46.2962" gradientUnits="userSpaceOnUse">
<stop stop-color="#50C878"/>
<stop offset="1" stop-color="#C0C850"/>
</linearGradient>
</defs>
</svg>
