<svg width="96" height="96" viewBox="0 0 96 96" fill="none" xmlns="http://www.w3.org/2000/svg">
<g clip-path="url(#clip0_7071_962)">
<path d="M0.0162506 41.4783C0.0162506 48.0564 7.5508 90.8125 39.327 95.417C71.1032 100.022 96 76.67 96 49.3715C96 22.073 76.6722 16.8105 37.3615 2.66792C-1.94929 -11.4746 0.0162506 34.9002 0.0162506 41.4783Z" fill="url(#paint0_linear_7071_962)"/>
<path d="M61.3327 74.6667C62.2447 74.6667 63.138 74.5733 63.9994 74.3973V80H31.9993V74.3973C32.8607 74.5733 33.754 74.6667 34.666 74.6667H61.3327ZM61.3327 21.3333C62.2447 21.3333 63.138 21.4267 63.9994 21.6027V16H31.9993V21.6027C32.8607 21.4267 33.754 21.3333 34.666 21.3333H61.3327ZM61.3327 26.6667H34.666C30.2553 26.6667 26.666 30.256 26.666 34.6667V61.3333C26.666 65.744 30.2553 69.3333 34.666 69.3333H61.3327C65.7434 69.3333 69.3327 65.744 69.3327 61.3333V34.6667C69.3327 30.256 65.7434 26.6667 61.3327 26.6667ZM42.666 61.3333H37.3327V56H42.666V61.3333ZM42.666 50.6667H37.3327V45.3333H42.666V50.6667ZM50.666 61.3333H45.3327V56H50.666V61.3333ZM50.666 50.6667H45.3327V45.3333H50.666V50.6667ZM58.666 61.3333H53.3327V56H58.666V61.3333ZM58.666 50.6667H53.3327V45.3333H58.666V50.6667ZM58.666 40H37.3327V34.6667H58.666V40Z" fill="white"/>
</g>
<defs>
<linearGradient id="paint0_linear_7071_962" x1="85.5373" y1="17.7409" x2="22.5268" y2="87.4983" gradientUnits="userSpaceOnUse">
<stop stop-color="#50C878"/>
<stop offset="1" stop-color="#C0C850"/>
</linearGradient>
<clipPath id="clip0_7071_962">
<rect width="96" height="96" fill="white"/>
</clipPath>
</defs>
</svg>
