<svg width="64" height="64" viewBox="0 0 64 64" fill="none" xmlns="http://www.w3.org/2000/svg">
<path d="M1.00001 41.3414C1.00001 34.7544 1.00001 25.2734 1.00001 18.6863C1.00001 18.6863 2.19234 18.6863 4.11498 18.6863C8.66075 18.6726 13.2065 18.6863 17.7523 18.6863C19.9283 18.6863 21.061 17.6528 21.061 15.6408C21.061 11.4791 21.1206 4.16182 21.0461 0.000111061L24.5039 0C29.2136 0.0964634 33.9382 0.027561 38.6628 0.027561C40.5408 0.027561 41.7331 0.0274079 41.7331 0.0274079C41.748 4.25802 41.7331 11.3138 41.7331 15.5444C41.7331 17.6528 42.836 18.6726 45.1014 18.6726C49.9453 18.6726 54.7891 18.6726 59.633 18.6726C61.0787 18.6726 63 18.6726 63 18.6726C62.9553 18.9757 61.5854 21.2495 61.4215 21.5251C56.518 29.8761 51.5996 38.2271 46.6962 46.578C45.8764 47.9836 45.5441 48.6727 45.5441 48.6727C40.1339 48.6727 28.5109 48.6982 23.1007 48.6982C23.1007 48.6982 23.863 47.3911 24.802 45.7925C29.3626 38.0204 33.8786 30.2344 38.5287 22.5173C39.8104 20.3813 38.7374 19.0722 36.3378 19.1549C32.5968 19.2927 28.841 19.1962 25.0851 19.1962C22.7303 19.1962 21.6125 20.2435 21.6125 22.4071C21.6125 35.2505 21.6125 48.0801 21.6274 60.9235C21.6274 62.0673 21.6274 63.9983 21.6274 63.9983C21.6274 63.9983 19.2278 63.9828 18.736 63.9828C13.7878 64.0103 5.94818 63.9966 1 63.9966C1 63.9966 1.00001 62.8941 1.00001 61.3094C1.00001 54.6534 1.00001 47.9974 1.00001 41.3414Z" fill="#042C53"/>
</svg>
