<svg width="64" height="64" viewBox="0 0 64 64" fill="none" xmlns="http://www.w3.org/2000/svg">
<g clip-path="url(#clip0_7075_1849)">
<path d="M32 64C14.3547 64 0 49.6453 0 32C0 14.3547 14.3547 0 32 0C49.6453 0 64 14.3547 64 32C64 49.6453 49.6453 64 32 64ZM32 2.66667C15.8267 2.66667 2.66667 15.8267 2.66667 32C2.66667 48.1733 15.8267 61.3333 32 61.3333C48.1733 61.3333 61.3333 48.1733 61.3333 32C61.3333 15.8267 48.1733 2.66667 32 2.66667ZM34.6667 13.3333H32V29.3333L26.4 21.8667L24.2667 23.4667L34.6667 37.3333V13.3333Z" fill="url(#paint0_linear_7075_1849)"/>
</g>
<defs>
<linearGradient id="paint0_linear_7075_1849" x1="6.97514" y1="11.8273" x2="48.9822" y2="58.3322" gradientUnits="userSpaceOnUse">
<stop stop-color="#50C878"/>
<stop offset="1" stop-color="#C0C850"/>
</linearGradient>
<clipPath id="clip0_7075_1849">
<rect width="64" height="64" fill="white"/>
</clipPath>
</defs>
</svg>
