<svg width="96" height="96" viewBox="0 0 96 96" fill="none" xmlns="http://www.w3.org/2000/svg">
<g clip-path="url(#clip0_7071_929)">
<path d="M95.9837 54.5217C95.9837 47.9436 88.4492 5.18755 56.673 0.582977C24.8968 -4.02159 0 19.33 0 46.6285C0 73.927 19.3278 79.1895 58.6385 93.3321C97.9493 107.475 95.9837 61.0998 95.9837 54.5217Z" fill="url(#paint0_linear_7071_929)"/>
<g clip-path="url(#clip1_7071_929)">
<path d="M53.4907 58.6667H56C73.7147 58.6667 80 49.3333 80 41.3333C79.9941 39.1337 79.2115 37.0069 77.7902 35.328C76.369 33.6492 74.4005 32.5262 72.232 32.1573C73.2368 30.0583 74.0008 27.8523 74.5093 25.5813C74.7461 24.4285 74.7223 23.2374 74.4394 22.095C74.1566 20.9526 73.622 19.8878 72.8747 18.9787C72.1176 18.0464 71.1618 17.2951 70.0771 16.7798C68.9924 16.2644 67.8062 15.998 66.6053 16H29.3947C28.1938 15.998 27.0076 16.2644 25.9229 16.7798C24.8382 17.2951 23.8824 18.0464 23.1253 18.9787C22.378 19.8878 21.8434 20.9526 21.5606 22.095C21.2777 23.2374 21.2539 24.4285 21.4907 25.5813C22 27.8522 22.7621 30.0588 23.7627 32.16C21.5956 32.53 19.6287 33.653 18.2086 35.3312C16.7885 37.0093 16.0063 39.135 16 41.3333C16 49.3333 22.2853 58.6667 40 58.6667H42.488C42.5878 59.2279 42.6475 59.7956 42.6667 60.3653V69.3334C42.7125 70.0456 42.6059 70.7595 42.3541 71.4273C42.1023 72.0951 41.711 72.7016 41.2063 73.2063C40.7016 73.711 40.0951 74.1023 39.4273 74.3541C38.7595 74.6059 38.0456 74.7125 37.3333 74.6667H29.3333V80H66.6667V74.6667H58.6667C57.9529 74.7148 57.2371 74.61 56.567 74.3593C55.897 74.1086 55.2882 73.7177 54.7813 73.2129C54.2744 72.708 53.8812 72.1008 53.6278 71.4318C53.3744 70.7627 53.2667 70.0473 53.312 69.3334V60.3653C53.3324 59.7957 53.3921 59.2281 53.4907 58.6667ZM57.272 51.5973C62.0929 47.5575 66.1999 42.7355 69.4213 37.3333H70.6667C71.7275 37.3333 72.7449 37.7548 73.4951 38.5049C74.2452 39.2551 74.6667 40.2725 74.6667 41.3333C74.6667 47.136 69.3547 53.3333 55.592 53.3333C56.0767 52.6862 56.6411 52.103 57.272 51.5973ZM21.3333 41.3333C21.3333 40.2725 21.7548 39.2551 22.5049 38.5049C23.2551 37.7548 24.2725 37.3333 25.3333 37.3333H26.5707C29.7857 42.7362 33.8885 47.5584 38.7067 51.5973C39.3363 52.1044 39.9006 52.6875 40.3867 53.3333C26.624 53.3333 21.3333 47.136 21.3333 41.3333Z" fill="white"/>
</g>
</g>
<defs>
<linearGradient id="paint0_linear_7071_929" x1="10.4627" y1="78.2591" x2="73.4732" y2="8.50173" gradientUnits="userSpaceOnUse">
<stop stop-color="#50C878"/>
<stop offset="1" stop-color="#C0C850"/>
</linearGradient>
<clipPath id="clip0_7071_929">
<rect width="96" height="96" fill="white"/>
</clipPath>
<clipPath id="clip1_7071_929">
<rect width="64" height="64" fill="white" transform="translate(16 16)"/>
</clipPath>
</defs>
</svg>
