<svg width="96" height="96" viewBox="0 0 96 96" fill="none" xmlns="http://www.w3.org/2000/svg">
<g clip-path="url(#clip0_7071_918)">
<path d="M95.9837 41.4783C95.9837 48.0564 88.4492 90.8125 56.673 95.417C24.8968 100.022 0 76.67 0 49.3715C0 22.073 19.3278 16.8105 58.6385 2.66792C97.9493 -11.4746 95.9837 34.9002 95.9837 41.4783Z" fill="url(#paint0_linear_7071_918)"/>
<path d="M79.8498 36.4322L47.9991 17.3335L16.1484 36.4322L47.9991 55.5415L79.8498 36.4322Z" fill="white"/>
<path d="M80 53.2402L48 72.4402L16 53.2402V59.4616L48 78.6589L80 59.4616V53.2402Z" fill="white"/>
<path d="M80 41.6909L73.2933 45.7149L48 60.8909L22.7067 45.7149L16 41.6909V47.9096L48 67.1096L80 47.9096V41.6909Z" fill="white"/>
</g>
<defs>
<linearGradient id="paint0_linear_7071_918" x1="10.4627" y1="17.7409" x2="73.4732" y2="87.4983" gradientUnits="userSpaceOnUse">
<stop stop-color="#50C878"/>
<stop offset="1" stop-color="#C0C850"/>
</linearGradient>
<clipPath id="clip0_7071_918">
<rect width="96" height="96" fill="white"/>
</clipPath>
</defs>
</svg>
