<svg width="96" height="96" viewBox="0 0 96 96" fill="none" xmlns="http://www.w3.org/2000/svg">
<g clip-path="url(#clip0_7071_937)">
<path d="M0.0162506 54.5217C0.0162506 47.9436 7.5508 5.18755 39.327 0.582977C71.1032 -4.02159 96 19.33 96 46.6285C96 73.927 76.6722 79.1895 37.3615 93.3321C-1.94929 107.475 0.0162506 61.0998 0.0162506 54.5217Z" fill="url(#paint0_linear_7071_937)"/>
<path d="M66.6673 37.3333V34.6667C66.6673 29.716 64.7007 24.968 61.2 21.4673C57.6993 17.9667 52.9514 16 48.0006 16C43.0499 16 38.302 17.9667 34.8013 21.4673C31.3006 24.968 29.334 29.716 29.334 34.6667V37.3333H21.334V72C21.334 74.1217 22.1768 76.1566 23.6771 77.6569C25.1774 79.1571 27.2123 80 29.334 80H66.6673C68.789 80 70.8239 79.1571 72.3242 77.6569C73.8245 76.1566 74.6673 74.1217 74.6673 72V37.3333H66.6673ZM50.6673 64H45.334V53.3333H50.6673V64ZM61.334 37.3333H34.6673V34.6667C34.6673 31.1304 36.0721 27.7391 38.5726 25.2386C41.073 22.7381 44.4644 21.3333 48.0006 21.3333C51.5369 21.3333 54.9283 22.7381 57.4287 25.2386C59.9292 27.7391 61.334 31.1304 61.334 34.6667V37.3333Z" fill="white"/>
</g>
<defs>
<linearGradient id="paint0_linear_7071_937" x1="85.5373" y1="78.2591" x2="22.5268" y2="8.50173" gradientUnits="userSpaceOnUse">
<stop stop-color="#50C878"/>
<stop offset="1" stop-color="#C0C850"/>
</linearGradient>
<clipPath id="clip0_7071_937">
<rect width="96" height="96" fill="white"/>
</clipPath>
</defs>
</svg>
