<svg width="96" height="96" viewBox="0 0 96 96" fill="none" xmlns="http://www.w3.org/2000/svg">
<g clip-path="url(#clip0_7071_1498)">
<path d="M95.9837 54.5217C95.9837 47.9436 88.4492 5.18755 56.673 0.582977C24.8968 -4.02159 0 19.33 0 46.6285C0 73.927 19.3278 79.1895 58.6385 93.3321C97.9493 107.475 95.9837 61.0998 95.9837 54.5217Z" fill="url(#paint0_linear_7071_1498)"/>
<g clip-path="url(#clip1_7071_1498)">
<path d="M69.1847 23.0457L48.0006 16.0244L26.8167 23.0457C25.2206 23.5749 23.8318 24.5934 22.8476 25.9568C21.8634 27.3201 21.3338 28.9589 21.334 30.6404V48.0004C21.334 68.0644 45.8673 79.1444 46.918 79.6057L47.862 80.0244L48.8433 79.6991C49.8993 79.3471 74.6673 70.8724 74.6673 48.0004V30.6404C74.6675 28.9589 74.1379 27.3201 73.1537 25.9568C72.1695 24.5934 70.7807 23.5749 69.1847 23.0457ZM49.1847 53.3044C48.7185 53.7737 48.1637 54.1457 47.5526 54.3989C46.9415 54.652 46.2861 54.7813 45.6247 54.7791H45.5366C44.8617 54.7687 44.1958 54.6216 43.5794 54.3466C42.9629 54.0716 42.4086 53.6744 41.95 53.1791L35.8007 46.7791L39.6486 43.0937L45.6327 49.3337L59.4486 35.5177L63.2193 39.2884L49.1847 53.3044Z" fill="white"/>
</g>
</g>
<defs>
<linearGradient id="paint0_linear_7071_1498" x1="10.4627" y1="78.2591" x2="73.4732" y2="8.50173" gradientUnits="userSpaceOnUse">
<stop stop-color="#50C878"/>
<stop offset="1" stop-color="#C0C850"/>
</linearGradient>
<clipPath id="clip0_7071_1498">
<rect width="96" height="96" fill="white"/>
</clipPath>
<clipPath id="clip1_7071_1498">
<rect width="64" height="64" fill="white" transform="translate(16 16)"/>
</clipPath>
</defs>
</svg>
