<svg width="64" height="64" viewBox="0 0 64 64" fill="none" xmlns="http://www.w3.org/2000/svg">
<g clip-path="url(#clip0_7071_881)">
<path d="M44.8693 37.3227H43.1307C39.936 37.3227 37.3333 34.72 37.3333 31.5253V29.3333H34.6667V31.5253C34.6667 34.72 32.0667 37.3227 28.872 37.3227H24.4667C21.2693 37.3227 18.6693 34.72 18.6693 31.5253V29.3333H16.0027V31.5253C16.0027 34.72 13.4027 37.3227 10.2053 37.3227H8.46667C5.33333 37.3227 2.77333 34.8213 2.672 31.712L8.26667 13.3307H16.0027V21.3307H18.6693V13.3307H32.0027C32.0027 12.4293 32.088 11.5413 32.2133 10.664H6.28533L0.056 31.1387L0 31.528C0 33.9467 1.03467 36.1173 2.66667 37.6613V57.3333C2.66667 61.0107 5.65867 64 9.33333 64H44C47.6773 64 50.6667 61.0107 50.6667 57.3333V39.496L47.6827 36.5653C46.8453 37.0347 45.8933 37.3227 44.8693 37.3227ZM48 57.3333C48 59.5387 46.2053 61.3333 44 61.3333H9.33333C7.128 61.3333 5.33333 59.5387 5.33333 57.3333V39.3733C6.304 39.7627 7.35467 39.9893 8.464 39.9893H10.2027C13.2053 39.9893 15.8293 38.408 17.3333 36.0453C18.8373 38.408 21.4613 39.9893 24.464 39.9893H28.8693C31.872 39.9893 34.496 38.408 36 36.0427C37.504 38.4053 40.128 39.9893 43.1307 39.9893H44.8693C45.976 39.9893 47.0293 39.7627 48 39.3733V57.3333ZM60.096 3.90667C57.5787 1.38933 54.2293 0 50.6693 0C47.1093 0 43.7573 1.38933 41.24 3.90667C36.0427 9.104 36.0427 17.5627 41.2507 22.7707L50.6667 31.9813L60.096 22.76C65.2933 17.5627 65.2933 9.104 60.096 3.90667ZM58.2213 20.864L50.6667 28.2533L43.1253 20.8747C38.9653 16.7147 38.9653 9.94933 43.1253 5.792C45.1413 3.776 47.8213 2.66667 50.6693 2.66667C53.5173 2.66667 56.1947 3.776 58.2107 5.792C62.3707 9.952 62.3707 16.7173 58.2213 20.864ZM53.3333 13.3333C53.3333 14.8053 52.1387 16 50.6667 16C49.1947 16 48 14.8053 48 13.3333C48 11.8613 49.1947 10.6667 50.6667 10.6667C52.1387 10.6667 53.3333 11.8613 53.3333 13.3333Z" fill="url(#paint0_linear_7071_881)"/>
</g>
<defs>
<linearGradient id="paint0_linear_7071_881" x1="6.97449" y1="11.8273" x2="48.9819" y2="58.3283" gradientUnits="userSpaceOnUse">
<stop stop-color="#50C878"/>
<stop offset="1" stop-color="#C0C850"/>
</linearGradient>
<clipPath id="clip0_7071_881">
<rect width="64" height="64" fill="white"/>
</clipPath>
</defs>
</svg>
