<svg width="64" height="64" viewBox="0 0 64 64" fill="none" xmlns="http://www.w3.org/2000/svg">
<g clip-path="url(#clip0_7071_845)">
<path d="M16 50.6667C16 52.1387 14.8053 53.3333 13.3333 53.3333C11.8613 53.3333 10.6667 52.1387 10.6667 50.6667C10.6667 49.1947 11.8613 48 13.3333 48C14.8053 48 16 49.1947 16 50.6667ZM64 37.3333V64H13.3333C5.98133 64 0 58.0187 0 50.6667V0H26.6667V18.4773L39.7307 5.41067L58.5867 24.2667L45.5227 37.3307H64V37.3333ZM26.5333 52.5547L54.8187 24.2693L39.7333 9.184L26.6693 22.2507V50.6693C26.6693 51.3093 26.624 51.9387 26.536 52.5573L26.5333 52.5547ZM2.66667 16H24V2.66667H2.66667V16ZM2.66667 32H24V18.6667H2.66667V32ZM24 50.6667V34.6667H2.66667V50.6667C2.66667 56.5573 7.44267 61.3333 13.3333 61.3333C19.224 61.3333 24 56.5573 24 50.6667ZM61.3333 40H42.856L22.76 60.096C22.3093 60.5467 21.8347 60.9573 21.3333 61.3333H61.3307L61.3333 40Z" fill="url(#paint0_linear_7071_845)"/>
</g>
<defs>
<linearGradient id="paint0_linear_7071_845" x1="6.97514" y1="11.8273" x2="48.9822" y2="58.3322" gradientUnits="userSpaceOnUse">
<stop stop-color="#50C878"/>
<stop offset="1" stop-color="#C0C850"/>
</linearGradient>
<clipPath id="clip0_7071_845">
<rect width="64" height="64" fill="white"/>
</clipPath>
</defs>
</svg>
