<svg width="64" height="64" viewBox="0 0 64 64" fill="none" xmlns="http://www.w3.org/2000/svg">
<g clip-path="url(#clip0_7071_863)">
<path d="M63.968 62.0827L46.4107 44.5253C50.696 39.792 53.3333 33.5387 53.3333 26.6667C53.3333 11.9627 41.3707 0 26.6667 0C11.9627 0 0 11.9627 0 26.6667C0 41.3707 11.9627 53.3333 26.6667 53.3333C33.5387 53.3333 39.792 50.696 44.5253 46.4107L62.0827 63.968L63.968 62.0827ZM2.66667 26.6667C2.66667 13.432 13.4347 2.66667 26.6667 2.66667C39.8987 2.66667 50.6667 13.432 50.6667 26.6667C50.6667 39.9013 39.8987 50.6667 26.6667 50.6667C13.4347 50.6667 2.66667 39.9013 2.66667 26.6667ZM22.6507 42.6667H30.6507L30.6667 10.6667H22.6667L22.6507 42.6667ZM25.3333 13.3333H28L27.9867 40H25.32L25.3333 13.3333ZM34.6507 37.3173H42.6507L42.6693 16H34.6693L34.6507 37.3173ZM37.3333 18.6667H40L39.9867 34.6507H37.32L37.3333 18.6667ZM10.6667 34.6667H18.6667V18.6667H10.6667V34.6667ZM13.3333 21.3333H16V32H13.3333V21.3333Z" fill="url(#paint0_linear_7071_863)"/>
</g>
<defs>
<linearGradient id="paint0_linear_7071_863" x1="6.97166" y1="11.8214" x2="48.9577" y2="58.303" gradientUnits="userSpaceOnUse">
<stop stop-color="#50C878"/>
<stop offset="1" stop-color="#C0C850"/>
</linearGradient>
<clipPath id="clip0_7071_863">
<rect width="64" height="64" fill="white"/>
</clipPath>
</defs>
</svg>
