<svg width="96" height="96" viewBox="0 0 96 96" fill="none" xmlns="http://www.w3.org/2000/svg">
<g clip-path="url(#clip0_7071_970)">
<path d="M95.9837 54.5217C95.9837 47.9436 88.4492 5.18755 56.673 0.582977C24.8968 -4.02159 0 19.33 0 46.6285C0 73.927 19.3278 79.1895 58.6385 93.3321C97.9493 107.475 95.9837 61.0998 95.9837 54.5217Z" fill="url(#paint0_linear_7071_970)"/>
<g clip-path="url(#clip1_7071_970)">
<path d="M79.9993 46.1573V80H48.0473C41.8046 79.997 35.6991 78.1681 30.4828 74.7386C25.2665 71.3091 21.1673 66.4287 18.69 60.6986C16.2127 54.9684 15.4655 48.6388 16.5406 42.4894C17.6156 36.34 20.4659 30.6393 24.7403 26.0894C29.0147 21.5396 34.5265 18.3394 40.597 16.883C46.6674 15.4266 53.0313 15.7776 58.9047 17.8928C64.7782 20.0079 69.9047 23.7948 73.6528 28.7871C77.401 33.7794 79.607 39.759 79.9993 45.9893V46.1573ZM50.666 34.6667H34.666V40H50.666V34.6667ZM61.3326 45.3333H34.666V50.6667H61.3326V45.3333ZM61.3326 56H34.666V61.3333H61.3326V56Z" fill="white"/>
</g>
</g>
<defs>
<linearGradient id="paint0_linear_7071_970" x1="10.4627" y1="78.2591" x2="73.4732" y2="8.50173" gradientUnits="userSpaceOnUse">
<stop stop-color="#50C878"/>
<stop offset="1" stop-color="#C0C850"/>
</linearGradient>
<clipPath id="clip0_7071_970">
<rect width="96" height="96" fill="white"/>
</clipPath>
<clipPath id="clip1_7071_970">
<rect width="64" height="64" fill="white" transform="translate(16 16)"/>
</clipPath>
</defs>
</svg>
