<svg width="64" height="64" viewBox="0 0 64 64" fill="none" xmlns="http://www.w3.org/2000/svg">
<g clip-path="url(#clip0_7071_890)">
<path d="M56 56.0001V64.0001H53.3333V56.0001C53.3333 51.5894 49.744 48.0001 45.3333 48.0001H18.6667C14.256 48.0001 10.6667 51.5894 10.6667 56.0001V64.0001H8V56.0001C8 50.1174 12.784 45.3334 18.6667 45.3334H45.3333C51.216 45.3334 56 50.1174 56 56.0001ZM10.6667 24.0001H8C8 17.1681 10.928 10.6374 16.0293 6.08277C21.128 1.53877 27.976 -0.610564 34.8267 0.162769C45.4853 1.3841 54.2907 9.96544 55.7627 20.5681C56.3387 24.7174 55.8533 28.9254 54.3627 32.7414C52.6613 37.0828 48.2267 40.0001 43.3307 40.0001H32.0027C29.0613 40.0001 26.6693 37.6081 26.6693 34.6668C26.6693 31.7254 29.0613 29.3334 32.0027 29.3334C34.944 29.3334 37.336 31.7254 37.336 34.6668C37.336 35.6374 37.0747 36.5494 36.6187 37.3334H43.3307C47.1413 37.3334 50.576 35.0961 51.8773 31.7681C53.2053 28.3788 53.6347 24.6294 53.1227 20.9334C51.816 11.5174 43.992 3.8961 34.5253 2.81344C28.3413 2.1041 22.4053 3.9761 17.8053 8.07744C13.2693 12.1254 10.6667 17.9281 10.6667 24.0028V24.0001ZM32 37.3334C33.4693 37.3334 34.6667 36.1388 34.6667 34.6668C34.6667 33.1948 33.4693 32.0001 32 32.0001C30.5307 32.0001 29.3333 33.1948 29.3333 34.6668C29.3333 36.1388 30.5307 37.3334 32 37.3334ZM32 10.6668C39.352 10.6668 45.3333 16.6481 45.3333 24.0001C45.3333 27.0214 44.264 29.7628 42.56 32.0001H45.832C47.2053 29.6454 48.0027 26.9174 48.0027 24.0001C48.0027 15.1761 40.8267 8.0001 32.0027 8.0001C23.1787 8.0001 16.0027 15.1761 16.0027 24.0001C16.0027 28.7894 18.128 33.0801 21.472 36.0161C21.416 35.5708 21.336 35.1281 21.336 34.6668C21.336 33.8401 21.4507 33.0454 21.6293 32.2721C19.8053 29.9921 18.6693 27.1388 18.6693 24.0001C18.6693 16.6481 24.6507 10.6668 32.0027 10.6668H32Z" fill="url(#paint0_linear_7071_890)"/>
</g>
<defs>
<linearGradient id="paint0_linear_7071_890" x1="13.2314" y1="11.8339" x2="54.732" y2="46.2963" gradientUnits="userSpaceOnUse">
<stop stop-color="#50C878"/>
<stop offset="1" stop-color="#C0C850"/>
</linearGradient>
<clipPath id="clip0_7071_890">
<rect width="64" height="64" fill="white"/>
</clipPath>
</defs>
</svg>
