<svg width="64" height="64" viewBox="0 0 64 64" fill="none" xmlns="http://www.w3.org/2000/svg">
<g clip-path="url(#clip0_7071_872)">
<path d="M56.0004 32C56.0004 30.3413 55.811 28.64 55.4377 26.936L63.4324 22.0027L55.0297 8.38667L47.035 13.3227C44.899 11.5973 42.5417 10.2693 40.0004 9.37333V0H24.0004V9.37067C21.459 10.2693 19.1017 11.5947 16.9657 13.32L8.97103 8.384L0.568359 22.0027L8.56303 26.936C8.18969 28.6427 8.00036 30.3413 8.00036 32C8.00036 33.6587 8.18969 35.36 8.56303 37.064L0.568359 41.9973L8.97103 55.6133L16.9657 50.6773C19.1017 52.4027 21.459 53.7307 24.0004 54.6267V63.9973H40.0004V54.6267C42.5417 53.728 44.899 52.4027 47.035 50.6773L55.0297 55.6133L63.4324 41.9973L55.4377 37.064C55.811 35.3573 56.0004 33.6587 56.0004 32ZM59.763 42.8667L54.1604 51.9413L46.7764 47.3867C44.195 49.816 41.0724 51.608 37.3337 52.68V61.3307H26.667V52.68C23.259 51.7973 20.1044 50.0587 17.2244 47.3867L9.84036 51.9413L4.23769 42.8667L11.6217 38.3093C11.6217 38.3093 10.667 35.8293 10.667 32C10.667 28.1707 11.6217 25.6907 11.6217 25.6907L4.23769 21.1333L9.84036 12.0587L17.2244 16.6133C19.8297 14.256 22.9577 12.472 26.667 11.32V2.66667H37.3337V11.3173C40.7364 12.1813 43.8777 13.9653 46.7764 16.6107L54.1604 12.056L59.763 21.1307L52.379 25.688C52.379 25.688 53.3337 28.2373 53.3337 31.9973C53.3337 35.7573 52.379 38.3067 52.379 38.3067L59.763 42.864V42.8667ZM32.0004 21.3333C26.1177 21.3333 21.3337 26.1173 21.3337 32C21.3337 37.8827 26.1177 42.6667 32.0004 42.6667C37.883 42.6667 42.667 37.8827 42.667 32C42.667 26.1173 37.883 21.3333 32.0004 21.3333ZM32.0004 40C27.5897 40 24.0004 36.4107 24.0004 32C24.0004 27.5893 27.5897 24 32.0004 24C36.411 24 40.0004 27.5893 40.0004 32C40.0004 36.4107 36.411 40 32.0004 40Z" fill="url(#paint0_linear_7071_872)"/>
</g>
<defs>
<linearGradient id="paint0_linear_7071_872" x1="7.41969" y1="11.8268" x2="49.4945" y2="57.5818" gradientUnits="userSpaceOnUse">
<stop stop-color="#50C878"/>
<stop offset="1" stop-color="#C0C850"/>
</linearGradient>
<clipPath id="clip0_7071_872">
<rect width="64" height="64" fill="white"/>
</clipPath>
</defs>
</svg>
