<svg width="96" height="96" viewBox="0 0 96 96" fill="none" xmlns="http://www.w3.org/2000/svg">
<g clip-path="url(#clip0_7071_945)">
<path d="M0.0162506 54.5217C0.0162506 47.9436 7.5508 5.18755 39.327 0.582977C71.1032 -4.02159 96 19.33 96 46.6285C96 73.927 76.6722 79.1895 37.3615 93.3321C-1.94929 107.475 0.0162506 61.0998 0.0162506 54.5217Z" fill="url(#paint0_linear_7071_945)"/>
<g clip-path="url(#clip1_7071_945)">
<path d="M45.3333 16H24C21.8783 16 19.8434 16.8429 18.3431 18.3431C16.8429 19.8434 16 21.8783 16 24V80H53.3333V24C53.3333 21.8783 52.4905 19.8434 50.9902 18.3431C49.4899 16.8429 47.4551 16 45.3333 16ZM32 66.6667H24V61.3333H32V66.6667ZM32 56H24V50.6667H32V56ZM32 45.3333H24V40H32V45.3333ZM32 34.6667H24V29.3333H32V34.6667ZM45.3333 66.6667H37.3333V61.3333H45.3333V66.6667ZM45.3333 56H37.3333V50.6667H45.3333V56ZM45.3333 45.3333H37.3333V40H45.3333V45.3333ZM45.3333 34.6667H37.3333V29.3333H45.3333V34.6667ZM72 29.3333H58.6667V80H80V37.3333C80 35.2116 79.1571 33.1768 77.6569 31.6765C76.1566 30.1762 74.1217 29.3333 72 29.3333ZM72 66.6667H66.6667V61.3333H72V66.6667ZM72 56H66.6667V50.6667H72V56ZM72 45.3333H66.6667V40H72V45.3333Z" fill="white"/>
</g>
</g>
<defs>
<linearGradient id="paint0_linear_7071_945" x1="85.5373" y1="78.2591" x2="22.5268" y2="8.50173" gradientUnits="userSpaceOnUse">
<stop stop-color="#50C878"/>
<stop offset="1" stop-color="#C0C850"/>
</linearGradient>
<clipPath id="clip0_7071_945">
<rect width="96" height="96" fill="white"/>
</clipPath>
<clipPath id="clip1_7071_945">
<rect width="64" height="64" fill="white" transform="translate(16 16)"/>
</clipPath>
</defs>
</svg>
