<svg width="54" height="54" viewBox="0 0 54 54" fill="none" xmlns="http://www.w3.org/2000/svg">
<path d="M22.5 9V29.25C22.4946 34.0223 20.5962 38.5972 17.2217 41.9717C13.8472 45.3462 9.27225 47.2446 4.5 47.25V42.75C7.68724 42.7441 10.7699 41.6113 13.2031 39.5527C15.6362 37.4942 17.264 34.6421 17.7979 31.5H0V18C0 15.6131 0.947915 13.3236 2.63574 11.6357C4.32357 9.94791 6.61305 9 9 9H22.5Z" fill="url(#paint0_linear_7071_1547)"/>
<path d="M54 9V29.25C53.9946 34.0223 52.0962 38.5972 48.7217 41.9717C45.3472 45.3462 40.7723 47.2446 36 47.25V42.75C39.1872 42.7441 42.2699 41.6113 44.7031 39.5527C47.1362 37.4942 48.764 34.6421 49.2979 31.5H31.5V18C31.5 15.6131 32.4479 13.3236 34.1357 11.6357C35.8236 9.94791 38.1131 9 40.5 9H54Z" fill="url(#paint1_linear_7071_1547)"/>
<defs>
<linearGradient id="paint0_linear_7071_1547" x1="5.88528" y1="16.0687" x2="28.7982" y2="51.8799" gradientUnits="userSpaceOnUse">
<stop stop-color="#50C878"/>
<stop offset="1" stop-color="#C0C850"/>
</linearGradient>
<linearGradient id="paint1_linear_7071_1547" x1="5.88528" y1="16.0687" x2="28.7982" y2="51.8799" gradientUnits="userSpaceOnUse">
<stop stop-color="#50C878"/>
<stop offset="1" stop-color="#C0C850"/>
</linearGradient>
</defs>
</svg>
