<svg width="166" height="34" viewBox="0 0 166 34" fill="none" xmlns="http://www.w3.org/2000/svg">
<path d="M1.48243 21.5256C1.48243 18.3314 1.48243 13.7339 1.48243 10.5397C1.48243 10.5397 2.06206 10.5397 2.99672 10.5397C5.20656 10.533 7.41641 10.5397 9.62626 10.5397C10.6841 10.5397 11.2347 10.0385 11.2347 9.06283C11.2347 7.04474 11.2637 3.49641 11.2275 1.47831L12.9084 1.47826C15.198 1.52504 17.4948 1.49163 19.7916 1.49163C20.7045 1.49163 21.2841 1.49155 21.2841 1.49155C21.2914 3.54306 21.2841 6.96455 21.2841 9.01606C21.2841 10.0385 21.8203 10.533 22.9216 10.533C25.2763 10.533 27.6311 10.533 29.9858 10.533C30.6886 10.533 31.6227 10.533 31.6227 10.533C31.6009 10.68 30.935 11.7826 30.8553 11.9162C28.4716 15.9658 26.0806 20.0154 23.6968 24.0649C23.2983 24.7465 23.1368 25.0807 23.1368 25.0807C20.5067 25.0807 14.8564 25.093 12.2263 25.093C12.2263 25.093 12.5969 24.4592 13.0533 23.684C15.2704 19.9151 17.4658 16.1395 19.7264 12.3974C20.3495 11.3616 19.8278 10.7268 18.6613 10.7669C16.8427 10.8337 15.0168 10.7869 13.191 10.7869C12.0462 10.7869 11.5028 11.2948 11.5028 12.3439C11.5028 18.572 11.5028 24.7933 11.5101 31.0213C11.5101 31.576 11.5101 32.5124 11.5101 32.5124C11.5101 32.5124 10.3436 32.5048 10.1045 32.5048C7.69898 32.5182 3.8879 32.5115 1.48242 32.5115C1.48242 32.5115 1.48243 31.9769 1.48243 31.2085C1.48243 27.9808 1.48243 24.7532 1.48243 21.5256Z" fill="#50C878"/>
<path d="M73.0608 32.5217H66.5403V10.5665H73.0608V32.5217Z" fill="white"/>
<path d="M110.972 16.6824L115.063 10.5665H122.269L114.842 21.5438L122.269 32.5217H115.063L110.972 26.4059L106.881 32.5217H99.6432L107.07 21.5438L99.6432 10.5665H106.881L110.972 16.6824Z" fill="white"/>
<path fill-rule="evenodd" clip-rule="evenodd" d="M56.0524 10.5665C66.9383 10.5982 67.1271 26.6135 56.0524 26.4571H44.5933V32.5059H38.0488V10.5665H56.0524ZM44.5933 20.9411H56.0524C58.2859 20.9407 58.3174 16.0829 55.9894 16.0826H44.5933V20.9411Z" fill="white"/>
<path d="M97.3903 17.057H93.923C91.5328 17.0571 89.5945 18.9866 89.5945 21.3669V24.7876H86.1584C83.7683 24.7877 81.8314 26.718 81.8314 29.0982V32.5059H75.3144V26.0161H78.7491C81.1392 26.016 83.0775 24.0856 83.0776 21.7055V18.2985H86.5449C88.9351 18.2985 90.8733 16.3682 90.8733 13.9879V10.5665H97.3903V17.057Z" fill="white"/>
<path d="M97.3917 32.5059H90.874V26.2658C90.8741 26.1993 90.9013 26.1354 90.9486 26.0883C90.9959 26.0413 91.0598 26.0147 91.1266 26.0146H97.3917V32.5059Z" fill="white"/>
<path d="M141.822 16.0826H131.065V18.7785H138.232V24.2946H131.114V26.9898H142.2V32.5059H124.564V10.5665H141.822V16.0826Z" fill="white"/>
<path d="M157.969 21.5366V10.5665H164.519V32.5059H157.969L150.664 21.5366V32.5059H144.115V10.5665H150.664L157.969 21.5366Z" fill="white"/>
<path d="M81.8307 16.8058C81.8305 16.8723 81.804 16.9364 81.7568 16.9834C81.7097 17.0303 81.6455 17.0568 81.5788 17.057H75.3137V10.5665H81.8307V16.8058Z" fill="white"/>
</svg>
