<svg width="96" height="96" viewBox="0 0 96 96" fill="none" xmlns="http://www.w3.org/2000/svg">
<g clip-path="url(#clip0_7071_767)">
<path d="M95.9838 41.4783C95.9838 48.0564 88.4492 90.8125 56.673 95.417C24.8968 100.022 0 76.67 0 49.3715C0 22.073 19.3278 16.8105 58.6385 2.66792C97.9493 -11.4746 95.9838 34.9002 95.9838 41.4783Z" fill="url(#paint0_linear_7071_767)"/>
<path d="M79.8498 36.432L47.9991 17.3334L16.1484 36.432L47.9991 55.5414L79.8498 36.432Z" fill="white"/>
<path d="M80 53.24L48 72.44L16 53.24V59.4613L48 78.6587L80 59.4613V53.24Z" fill="white"/>
<path d="M80 41.6907L73.2933 45.7147L48 60.8907L22.7067 45.7147L16 41.6907V47.9093L48 67.1093L80 47.9093V41.6907Z" fill="white"/>
</g>
<defs>
<linearGradient id="paint0_linear_7071_767" x1="10.4627" y1="17.7409" x2="73.4732" y2="87.4983" gradientUnits="userSpaceOnUse">
<stop stop-color="#50C878"/>
<stop offset="1" stop-color="#C0C850"/>
</linearGradient>
<clipPath id="clip0_7071_767">
<rect width="96" height="96" fill="white"/>
</clipPath>
</defs>
</svg>
