<svg width="96" height="96" viewBox="0 0 96 96" fill="none" xmlns="http://www.w3.org/2000/svg">
<g clip-path="url(#clip0_7071_828)">
<path d="M95.9838 41.4783C95.9838 48.0564 88.4492 90.8125 56.673 95.417C24.8968 100.022 0 76.67 0 49.3715C0 22.073 19.3278 16.8105 58.6385 2.66792C97.9493 -11.4746 95.9838 34.9002 95.9838 41.4783Z" fill="url(#paint0_linear_7071_828)"/>
<path d="M16 40V77.3333H80V40H16ZM56 66.6666H29.3333V61.3333H56V66.6666ZM66.6667 56H29.3333V50.6666H66.6667V56ZM72 18.6666H24C21.8783 18.6666 19.8434 19.5095 18.3431 21.0098C16.8429 22.5101 16 24.5449 16 26.6666V34.6666H80V26.6666C80 24.5449 79.1571 22.5101 77.6569 21.0098C76.1566 19.5095 74.1217 18.6666 72 18.6666ZM26.6667 29.3333C26.1393 29.3333 25.6237 29.1769 25.1851 28.8839C24.7466 28.5909 24.4048 28.1744 24.203 27.6871C24.0012 27.1998 23.9483 26.6637 24.0512 26.1464C24.1541 25.6291 24.4081 25.1539 24.781 24.781C25.154 24.4081 25.6291 24.1541 26.1464 24.0512C26.6637 23.9483 27.1999 24.0011 27.6872 24.2029C28.1744 24.4048 28.5909 24.7466 28.8839 25.1851C29.1769 25.6236 29.3333 26.1392 29.3333 26.6666C29.3333 27.3739 29.0524 28.0521 28.5523 28.5522C28.0522 29.0523 27.3739 29.3333 26.6667 29.3333ZM34.6667 29.3333C34.1393 29.3333 33.6237 29.1769 33.1851 28.8839C32.7466 28.5909 32.4048 28.1744 32.203 27.6871C32.0012 27.1998 31.9483 26.6637 32.0512 26.1464C32.1541 25.6291 32.4081 25.1539 32.781 24.781C33.154 24.4081 33.6291 24.1541 34.1464 24.0512C34.6637 23.9483 35.1999 24.0011 35.6872 24.2029C36.1744 24.4048 36.5909 24.7466 36.8839 25.1851C37.1769 25.6236 37.3333 26.1392 37.3333 26.6666C37.3333 27.3739 37.0524 28.0521 36.5523 28.5522C36.0522 29.0523 35.3739 29.3333 34.6667 29.3333ZM42.6667 29.3333C42.1393 29.3333 41.6237 29.1769 41.1851 28.8839C40.7466 28.5909 40.4048 28.1744 40.203 27.6871C40.0012 27.1998 39.9483 26.6637 40.0512 26.1464C40.1541 25.6291 40.4081 25.1539 40.781 24.781C41.154 24.4081 41.6291 24.1541 42.1464 24.0512C42.6637 23.9483 43.1999 24.0011 43.6872 24.2029C44.1744 24.4048 44.5909 24.7466 44.8839 25.1851C45.1769 25.6236 45.3333 26.1392 45.3333 26.6666C45.3333 27.3739 45.0524 28.0521 44.5523 28.5522C44.0522 29.0523 43.3739 29.3333 42.6667 29.3333Z" fill="white"/>
</g>
<defs>
<linearGradient id="paint0_linear_7071_828" x1="10.4627" y1="17.7409" x2="73.4732" y2="87.4983" gradientUnits="userSpaceOnUse">
<stop stop-color="#50C878"/>
<stop offset="1" stop-color="#C0C850"/>
</linearGradient>
<clipPath id="clip0_7071_828">
<rect width="96" height="96" fill="white"/>
</clipPath>
</defs>
</svg>
