<svg width="96" height="96" viewBox="0 0 96 96" fill="none" xmlns="http://www.w3.org/2000/svg">
<g clip-path="url(#clip0_7071_778)">
<path d="M95.9838 54.5217C95.9838 47.9436 88.4492 5.18754 56.673 0.582977C24.8968 -4.02159 0 19.33 0 46.6285C0 73.927 19.3278 79.1895 58.6385 93.3321C97.9493 107.475 95.9838 61.0998 95.9838 54.5217Z" fill="url(#paint0_linear_7071_778)"/>
<g clip-path="url(#clip1_7071_778)">
<path d="M69.1846 23.0454L48.0006 16.024L26.8167 23.0454C25.2206 23.5745 23.8318 24.5931 22.8476 25.9564C21.8634 27.3198 21.3338 28.9586 21.334 30.64V48C21.334 68.0641 45.8673 79.144 46.918 79.6054L47.862 80.024L48.8433 79.6987C49.8993 79.3467 74.6673 70.872 74.6673 48V30.64C74.6675 28.9586 74.1379 27.3198 73.1537 25.9564C72.1695 24.5931 70.7807 23.5745 69.1846 23.0454ZM49.1847 53.3041C48.7185 53.7733 48.1637 54.1454 47.5526 54.3985C46.9415 54.6517 46.2861 54.7809 45.6247 54.7787H45.5367C44.8617 54.7684 44.1958 54.6213 43.5794 54.3462C42.9629 54.0712 42.4086 53.6741 41.95 53.1787L35.8007 46.7787L39.6487 43.0934L45.6327 49.3334L59.4486 35.5174L63.2193 39.288L49.1847 53.3041Z" fill="white"/>
</g>
</g>
<defs>
<linearGradient id="paint0_linear_7071_778" x1="10.4627" y1="78.2591" x2="73.4732" y2="8.50173" gradientUnits="userSpaceOnUse">
<stop stop-color="#50C878"/>
<stop offset="1" stop-color="#C0C850"/>
</linearGradient>
<clipPath id="clip0_7071_778">
<rect width="96" height="96" fill="white"/>
</clipPath>
<clipPath id="clip1_7071_778">
<rect width="64" height="64" fill="white" transform="translate(16 16)"/>
</clipPath>
</defs>
</svg>
