<svg width="96" height="96" viewBox="0 0 96 96" fill="none" xmlns="http://www.w3.org/2000/svg">
<g clip-path="url(#clip0_7071_811)">
<path d="M0.0162468 41.4783C0.0162468 48.0564 7.55081 90.8125 39.327 95.417C71.1032 100.022 96 76.67 96 49.3715C96 22.073 76.6722 16.8105 37.3615 2.66792C-1.94929 -11.4746 0.0162468 34.9002 0.0162468 41.4783Z" fill="url(#paint0_linear_7071_811)"/>
<path d="M48.0006 16C40.9306 16.0078 34.1523 18.8198 29.153 23.8191C24.1538 28.8183 21.3417 35.5966 21.334 42.6667C21.334 56.752 43.734 76.088 46.278 78.248L48.0006 79.704L49.7233 78.248C52.2673 76.088 74.6673 56.752 74.6673 42.6667C74.6596 35.5966 71.8475 28.8183 66.8483 23.8191C61.849 18.8198 55.0707 16.0078 48.0006 16ZM48.0006 56C45.3636 56 42.7857 55.218 40.593 53.7529C38.4004 52.2878 36.6914 50.2055 35.6823 47.7691C34.6731 45.3328 34.409 42.6519 34.9235 40.0655C35.438 37.479 36.7079 35.1033 38.5726 33.2386C40.4373 31.3739 42.813 30.104 45.3994 29.5895C47.9859 29.0751 50.6667 29.3391 53.1031 30.3483C55.5394 31.3574 57.6218 33.0664 59.0869 35.2591C60.552 37.4517 61.334 40.0296 61.334 42.6667C61.3297 46.2016 59.9236 49.5905 57.4241 52.0901C54.9245 54.5896 51.5356 55.9958 48.0006 56Z" fill="white"/>
<path d="M48 50.6666C52.4183 50.6666 56 47.0849 56 42.6666C56 38.2483 52.4183 34.6666 48 34.6666C43.5817 34.6666 40 38.2483 40 42.6666C40 47.0849 43.5817 50.6666 48 50.6666Z" fill="white"/>
</g>
<defs>
<linearGradient id="paint0_linear_7071_811" x1="85.5373" y1="17.7409" x2="22.5268" y2="87.4983" gradientUnits="userSpaceOnUse">
<stop stop-color="#50C878"/>
<stop offset="1" stop-color="#C0C850"/>
</linearGradient>
<clipPath id="clip0_7071_811">
<rect width="96" height="96" fill="white"/>
</clipPath>
</defs>
</svg>
