<svg width="96" height="96" viewBox="0 0 96 96" fill="none" xmlns="http://www.w3.org/2000/svg">
<g clip-path="url(#clip0_7071_786)">
<path d="M0.0162468 41.4783C0.0162468 48.0564 7.55081 90.8125 39.327 95.417C71.1032 100.022 96 76.67 96 49.3715C96 22.073 76.6722 16.8105 37.3615 2.66792C-1.94929 -11.4746 0.0162468 34.9002 0.0162468 41.4783Z" fill="url(#paint0_linear_7071_786)"/>
<g clip-path="url(#clip1_7071_786)">
<path d="M72 80H45.3333V50.6667H80V72C80 76.4107 76.4107 80 72 80ZM40 80H24C19.5893 80 16 76.4107 16 72V50.6667H40V80ZM80 45.3333H16V24C16 19.5893 19.5893 16 24 16H72C76.4107 16 80 19.5893 80 24V45.3333Z" fill="white"/>
</g>
</g>
<defs>
<linearGradient id="paint0_linear_7071_786" x1="85.5373" y1="17.7409" x2="22.5268" y2="87.4983" gradientUnits="userSpaceOnUse">
<stop stop-color="#50C878"/>
<stop offset="1" stop-color="#C0C850"/>
</linearGradient>
<clipPath id="clip0_7071_786">
<rect width="96" height="96" fill="white"/>
</clipPath>
<clipPath id="clip1_7071_786">
<rect width="64" height="64" fill="white" transform="translate(16 16)"/>
</clipPath>
</defs>
</svg>
